<mxfile host="65bd71144e">
    <diagram id="lzZtJqDfSZuDb2sFJaUa" name="Page-1">
        <mxGraphModel dx="2884" dy="1369" grid="1" gridSize="10" guides="1" tooltips="1" connect="1" arrows="1" fold="1" page="1" pageScale="1" pageWidth="827" pageHeight="1169" math="0" shadow="0">
            <root>
                <mxCell id="0"/>
                <mxCell id="1" parent="0"/>
                <mxCell id="2" value="flowchart LR&#xa;    Client[Client Browser] &lt;--&gt; Frontend[Frontend&lt;br&gt;Vite + React + TypeScript]&#xa;    Frontend &lt;--&gt; Backend[Backend&lt;br&gt;FastAPI]&#xa;    Backend &lt;--&gt; DB[(PostgreSQL)]&#xa;    &#xa;    subgraph &quot;Client Side&quot;&#xa;        Client&#xa;        Frontend&#xa;    end&#xa;    &#xa;    subgraph &quot;Server Side&quot;&#xa;        Backend&#xa;        DB&#xa;    end" style="shadow=0;dashed=0;align=left;strokeWidth=1;shape=mxgraph.mermaid.abstract.mermaid;labelBackgroundColor=#ffffff;noLabel=1;theme=default;" vertex="1" parent="1">
                    <mxGeometry x="40" y="40" width="520" height="160" as="geometry"/>
                </mxCell>
                <mxCell id="3" value="Architecture" style="text;html=1;align=center;verticalAlign=middle;resizable=0;points=[];autosize=1;strokeColor=none;fillColor=none;" vertex="1" parent="1">
                    <mxGeometry x="255" y="40" width="90" height="30" as="geometry"/>
                </mxCell>
                <mxCell id="4" value="flowchart TD&#xa;    User([Utilisateur]) --&gt; AuthCase[S&#39;authentifier]&#xa;    User --&gt; CrudCase[Gérer les données]&#xa;    User --&gt; SearchCase[Rechercher]&#xa;    &#xa;    Admin([Administrateur]) --&gt; UserManageCase[Gérer les utilisateurs]&#xa;    Admin --&gt; ConfigCase[Configurer système]&#xa;    Admin --&gt; AuthCase&#xa;    Admin --&gt; CrudCase&#xa;    Admin --&gt; LogCase[Consulter logs]&#xa;    Admin --&gt; SearchCase" style="shadow=0;dashed=0;align=left;strokeWidth=1;shape=mxgraph.mermaid.abstract.mermaid;labelBackgroundColor=#ffffff;noLabel=1;theme=default;" vertex="1" parent="1">
                    <mxGeometry x="40" y="220" width="540" height="110" as="geometry"/>
                </mxCell>
                <mxCell id="5" value="Use Case" style="text;html=1;align=center;verticalAlign=middle;resizable=0;points=[];autosize=1;strokeColor=none;fillColor=none;" vertex="1" parent="1">
                    <mxGeometry x="270" y="200" width="80" height="30" as="geometry"/>
                </mxCell>
                <mxCell id="6" value="flowchart TD&#xa;    Client[Client] --&gt; API[FastAPI App]&#xa;    &#xa;    subgraph &quot;Backend&quot;&#xa;        API --&gt; Router1[Router API v1]&#xa;        API --&gt; Router2[Router Auth]&#xa;        API --&gt; Router3[Router Admin]&#xa;        &#xa;        Router1 --&gt; Service1[Services Métier]&#xa;        Router2 --&gt; Service2[Services Auth]&#xa;        Router3 --&gt; Service3[Services Admin]&#xa;        &#xa;        Service1 --&gt; Repository1[Repository]&#xa;        Service2 --&gt; Repository1&#xa;        Service3 --&gt; Repository1&#xa;        &#xa;        Repository1 --&gt; Models[Models SQLAlchemy]&#xa;        Models --&gt; DB[(PostgreSQL)]&#xa;    end" style="shadow=0;dashed=0;align=left;strokeWidth=1;shape=mxgraph.mermaid.abstract.mermaid;labelBackgroundColor=#ffffff;noLabel=1;theme=default;" vertex="1" parent="1">
                    <mxGeometry x="40" y="395" width="340" height="380" as="geometry"/>
                </mxCell>
                <mxCell id="7" value="Archi Backend" style="text;html=1;align=center;verticalAlign=middle;resizable=0;points=[];autosize=1;strokeColor=none;fillColor=none;" vertex="1" parent="1">
                    <mxGeometry x="160" y="365" width="100" height="30" as="geometry"/>
                </mxCell>
                <mxCell id="8" value="erDiagram&#xa;    USERS {&#xa;        uuid id PK&#xa;        string email&#xa;        string password_hash&#xa;        string role&#xa;        datetime created_at&#xa;    }&#xa;    &#xa;    ITEMS {&#xa;        uuid id PK&#xa;        string name&#xa;        text description&#xa;        uuid user_id FK&#xa;        datetime created_at&#xa;    }&#xa;    &#xa;    CATEGORIES {&#xa;        uuid id PK&#xa;        string name&#xa;    }&#xa;    &#xa;    ITEM_CATEGORIES {&#xa;        uuid item_id FK&#xa;        uuid category_id FK&#xa;    }&#xa;    &#xa;    USERS ||--o{ ITEMS : creates&#xa;    ITEMS }|--|{ CATEGORIES : belongs_to&#xa;    ITEMS ||--|{ ITEM_CATEGORIES : has&#xa;    CATEGORIES ||--|{ ITEM_CATEGORIES : contains" style="shadow=0;dashed=0;align=left;strokeWidth=1;shape=mxgraph.mermaid.abstract.mermaid;labelBackgroundColor=#ffffff;noLabel=1;theme=default;" vertex="1" parent="1">
                    <mxGeometry x="580" y="365" width="200" height="520" as="geometry"/>
                </mxCell>
                <mxCell id="9" value="Database" style="text;html=1;align=center;verticalAlign=middle;resizable=0;points=[];autosize=1;strokeColor=none;fillColor=none;" vertex="1" parent="1">
                    <mxGeometry x="645" y="350" width="70" height="30" as="geometry"/>
                </mxCell>
                <mxCell id="10" value="flowchart TD&#xa;    App --&gt; Router[React Router]&#xa;    Router --&gt; Auth[Auth Pages]&#xa;    Router --&gt; Protected[Protected Pages]&#xa;    Router --&gt; Public[Public Pages]&#xa;    &#xa;    subgraph &quot;Frontend Components&quot;&#xa;        Auth --&gt; Login&#xa;        Auth --&gt; Register&#xa;        &#xa;        Protected --&gt; Dashboard&#xa;        Protected --&gt; Profile&#xa;        Protected --&gt; Admin&#xa;        &#xa;        Public --&gt; Home&#xa;        Public --&gt; About&#xa;        &#xa;        Dashboard --&gt; ItemList&#xa;        Dashboard --&gt; ItemDetail&#xa;        ItemList --&gt; ItemComponent&#xa;        &#xa;        subgraph &quot;State Management&quot;&#xa;            Redux[(Redux Store)]&#xa;            Context[(React Context)]&#xa;        end&#xa;        &#xa;        ItemList --&gt; Redux&#xa;        ItemDetail --&gt; Redux&#xa;        Login --&gt; Context&#xa;    end&#xa;    &#xa;    subgraph &quot;API Integration&quot;&#xa;        ApiService[API Service]&#xa;        Redux --&gt; ApiService&#xa;        Context --&gt; ApiService&#xa;        ApiService --&gt; Backend[Backend API]&#xa;    end" style="shadow=0;dashed=0;align=left;strokeWidth=1;shape=mxgraph.mermaid.abstract.mermaid;labelBackgroundColor=#ffffff;noLabel=1;theme=default;" vertex="1" parent="1">
                    <mxGeometry x="-630" y="395" width="630" height="520" as="geometry"/>
                </mxCell>
                <mxCell id="11" value="Archi Frontend" style="text;html=1;align=center;verticalAlign=middle;resizable=0;points=[];autosize=1;strokeColor=none;fillColor=none;" vertex="1" parent="1">
                    <mxGeometry x="-260" y="365" width="100" height="30" as="geometry"/>
                </mxCell>
                <mxCell id="12" value="sequenceDiagram&#xa;    actor User&#xa;    participant Frontend&#xa;    participant AuthAPI as API Auth&#xa;    participant JWT as JWT Service&#xa;    participant DB&#xa;    &#xa;    User-&gt;&gt;Frontend: Entre identifiants&#xa;    Frontend-&gt;&gt;AuthAPI: POST /auth/login&#xa;    AuthAPI-&gt;&gt;DB: Vérifie identifiants&#xa;    DB--&gt;&gt;AuthAPI: Données utilisateur&#xa;    AuthAPI-&gt;&gt;JWT: Génère token&#xa;    JWT--&gt;&gt;AuthAPI: JWT token&#xa;    AuthAPI--&gt;&gt;Frontend: Retourne token + infos user&#xa;    Frontend-&gt;&gt;Frontend: Stocke token dans localStorage&#xa;    Frontend--&gt;&gt;User: Redirection Dashboard" style="shadow=0;dashed=0;align=left;strokeWidth=1;shape=mxgraph.mermaid.abstract.mermaid;labelBackgroundColor=#ffffff;noLabel=1;theme=default;" vertex="1" parent="1">
                    <mxGeometry x="890" y="115" width="940" height="530" as="geometry"/>
                </mxCell>
                <mxCell id="13" value="Auth sequence" style="text;html=1;align=center;verticalAlign=middle;resizable=0;points=[];autosize=1;strokeColor=none;fillColor=none;" vertex="1" parent="1">
                    <mxGeometry x="1310" y="85" width="100" height="30" as="geometry"/>
                </mxCell>
                <mxCell id="14" value="flowchart LR&#xa;    Git[Git Repository] --&gt; GHA[GitHub Actions]&#xa;    &#xa;    subgraph &quot;CI Pipeline&quot;&#xa;        GHA --&gt; Test[Run Tests]&#xa;        Test --&gt; Lint[Lint Code]&#xa;        Lint --&gt; Build[Build]&#xa;    end&#xa;    &#xa;    Build --&gt; DockerRegistry[Docker Registry]&#xa;    &#xa;    DockerRegistry --&gt; Deploy[Deploy]&#xa;    &#xa;    subgraph &quot;Production Environment&quot;&#xa;        Deploy --&gt; ServerBack[Backend Server]&#xa;        Deploy --&gt; ServerFront[Frontend Server]&#xa;        ServerBack --&gt; Database[(PostgreSQL DB)]&#xa;    end" style="shadow=0;dashed=0;align=left;strokeWidth=1;shape=mxgraph.mermaid.abstract.mermaid;labelBackgroundColor=#ffffff;noLabel=1;theme=default;" vertex="1" parent="1">
                    <mxGeometry x="850" y="790" width="800" height="120" as="geometry"/>
                </mxCell>
                <mxCell id="15" value="CI/CD" style="text;html=1;align=center;verticalAlign=middle;resizable=0;points=[];autosize=1;strokeColor=none;fillColor=none;" vertex="1" parent="1">
                    <mxGeometry x="1220" y="760" width="60" height="30" as="geometry"/>
                </mxCell>
                <mxCell id="16" value="flowchart TD&#xa;    App --&gt; AppRouter[App Router]&#xa;    AppRouter --&gt; Layout[Layout Component]&#xa;    Layout --&gt; Header[Header Component]&#xa;    Layout --&gt; Footer[Footer Component]&#xa;    Layout --&gt; Content[Content Component]&#xa;    &#xa;    Content --&gt; Routes{Routes}&#xa;    Routes --&gt; HomePage[Home Page]&#xa;    Routes --&gt; ItemsPage[Items Page]&#xa;    Routes --&gt; DetailPage[Detail Page]&#xa;    Routes --&gt; AdminPage[Admin Page]&#xa;    &#xa;    ItemsPage --&gt; ItemsList[Items List]&#xa;    ItemsList --&gt; ItemCard[Item Card]&#xa;    DetailPage --&gt; ItemDetail[Item Detail]&#xa;    AdminPage --&gt; AdminTabs[Admin Tabs]&#xa;    &#xa;    subgraph &quot;Shared Components&quot;&#xa;        Button[Button]&#xa;        Input[Input]&#xa;        Modal[Modal]&#xa;        Form[Form]&#xa;    end&#xa;    &#xa;    ItemCard --&gt; Button&#xa;    ItemDetail --&gt; Button&#xa;    ItemDetail --&gt; Modal&#xa;    AdminTabs --&gt; Form&#xa;    AdminTabs --&gt; Input" style="shadow=0;dashed=0;align=left;strokeWidth=1;shape=mxgraph.mermaid.abstract.mermaid;labelBackgroundColor=#ffffff;noLabel=1;theme=default;" vertex="1" parent="1">
                    <mxGeometry x="70" y="885" width="420" height="680" as="geometry"/>
                </mxCell>
                <mxCell id="17" value="Frontend components" style="text;html=1;align=center;verticalAlign=middle;resizable=0;points=[];autosize=1;strokeColor=none;fillColor=none;" vertex="1" parent="1">
                    <mxGeometry x="130" y="980" width="140" height="30" as="geometry"/>
                </mxCell>
            </root>
        </mxGraphModel>
    </diagram>
</mxfile>